<?xml version="1.0" encoding="utf-8"?>
<!-- Generator: Adobe Illustrator 23.0.1, SVG Export Plug-In . SVG Version: 6.00 Build 0)  -->
<svg version="1.1" id="Layer_1" xmlns="http://www.w3.org/2000/svg" xmlns:xlink="http://www.w3.org/1999/xlink" x="0px" y="0px"
	 viewBox="0 0 45 36" style="enable-background:new 0 0 45 36;" width="45px" height="36px" xml:space="preserve">
<style type="text/css">
	.st0{fill-rule:evenodd;clip-rule:evenodd;fill:#00BDFF;}
</style>
<g>
	<path class="st0" d="M7.2,32.9c-1.5-0.1-1.9-1.2-1.7-2.4c0.8-7.3,9-5.2,12.3-8.2l0,0c1.6,4.8,8.5,5,10.1,0c0.4,0.3,0.8,0.6,1.4,0.8
		c-0.5,0.3-1,0.7-1.5,1.2c-2.3,2.3-2.9,5.7-1.7,8.6H7.2L7.2,32.9z M17.7,17.5c0.6,1,1.3,2,2.1,2.7c0.8,0.7,1.7,1.2,3,1.2
		c1.4,0,2.3-0.5,3.2-1.3c0.8-0.8,1.5-1.9,2.2-2.9l1.8-2.9c0.3-0.7,0.4-1.2,0.4-1.5c0-0.2-0.2-0.3-0.6-0.3c-0.1,0-0.1,0-0.2,0
		c-0.1,0-0.2,0-0.2,0c0,0-0.1,0-0.1,0c-0.2,0-0.3,0-0.5,0l0.6-2.7c-4.4,0.7-7.8-2.6-12.5-0.7l0.3,3.1c-0.2,0-0.4,0-0.5,0
		C13.8,12.4,17.2,16.6,17.7,17.5L17.7,17.5L17.7,17.5L17.7,17.5z M30.3,11.7c0.4,0.1,0.7,0.4,0.8,0.8c0.1,0.5,0,1.2-0.4,2.1l0,0
		c0,0,0,0,0,0l-1.8,2.9c-0.7,1.1-1.4,2.3-2.3,3.1c-1,0.9-2.1,1.5-3.8,1.5c-1.5,0-2.6-0.6-3.6-1.4c-1.1-1-6.3-7.5-4-9.1
		c0.1-0.1,0.2-0.1,0.4-0.2c-0.1-1.3-0.1-3-0.1-4.4c0-0.3,0.1-0.7,0.2-1c0.4-1.4,1.4-2.6,2.6-3.3c0.7-0.4,1.4-0.8,2.2-1
		c0.5-0.1-0.4-1.7,0.1-1.8c2.5-0.3,6.5,2,8.2,3.9c0.9,0.9,1.4,2.2,1.5,3.8L30.3,11.7L30.3,11.7L30.3,11.7L30.3,11.7L30.3,11.7
		L30.3,11.7z"/>
	<path class="st0" d="M33.4,23.6c3.4,0,6.2,2.8,6.2,6.2S36.8,36,33.4,36s-6.2-2.8-6.2-6.2S30,23.6,33.4,23.6L33.4,23.6L33.4,23.6
		L33.4,23.6z M31.2,29.3c0.5,0.3,0.8,0.5,1.1,0.9c0.9-1.5,1.9-2.3,3.3-3.5l0.1,0h1.4c-1.9,2.1-3.4,3.9-4.8,6.5
		c-0.7-1.5-1.3-2.5-2.7-3.5L31.2,29.3L31.2,29.3L31.2,29.3z"/>
</g>
</svg>
