<?xml version="1.0" encoding="utf-8"?>
<!-- Generator: Adobe Illustrator 23.0.1, SVG Export Plug-In . SVG Version: 6.00 Build 0)  -->
<svg version="1.1" id="Layer_1" xmlns="http://www.w3.org/2000/svg" xmlns:xlink="http://www.w3.org/1999/xlink" x="0px" y="0px"
	 viewBox="0 0 45 36" style="enable-background:new 0 0 45 36;" width="45px" height="36px" xml:space="preserve">
<style type="text/css">
	.st0{fill:#00BDFF;}
</style>
<g>
	<path class="st0" d="M19.5,27.8c1.7-2.1,2.8-4.6,3.3-7.2c0-0.8,0.8-3.1-0.4-3.2c-1.1,0.1-0.5,2.2-0.8,3c-0.7,4.2-3.3,7.9-7,10
		c-0.3,0.2-0.4,0.5-0.2,0.8C15.2,32.6,18.9,28.6,19.5,27.8z"/>
	<path class="st0" d="M22.3,28.3c2.2-2.9,6.2-13.3-0.1-13.4l0,0c-1.6,0.1-2.9,1.5-2.9,3.1c0,2.1-0.5,4.1-1.6,5.9
		c-1.2,2.1-3.1,3.8-5.3,4.8c-0.3,0.1-0.4,0.5-0.3,0.8c0.1,0.3,0.5,0.4,0.8,0.3c3.3-1.5,5.8-4.3,7-7.8c0.4-1.3,0.7-2.7,0.7-4.1
		c0-1,0.8-1.8,1.8-1.9c4.3,0.1,0.5,9.6-1,11.4c-1.1,1.6-2.5,3-4,4.1c-0.3,0.2-0.3,0.6-0.1,0.9c0,0,0,0,0,0
		C18.1,33.8,21.7,29.2,22.3,28.3z"/>
	<path class="st0" d="M27,24.6c0.7-2.2,1.1-4.5,1.1-6.8c-0.1-4.4-5.7-7-9.1-4.1c-4,3.3-0.1,7.9-6.2,12.1c-0.7,0.5-1.4,0.8-2.1,1.1
		c-0.3,0.1-0.5,0.5-0.4,0.8c0,0,0,0,0,0c0.7,1.4,4.6-1.8,5.2-2.6c1.7-1.9,2.7-4.4,2.7-7c0-1.3,0.6-2.6,1.6-3.4
		c2.6-2.2,7-0.3,7.1,3.2c0.1,5.6-2.3,10.9-6.5,14.6c-0.3,0.2-0.3,0.6-0.1,0.9c0.9,0.9,2.6-1.8,3.2-2.4C25,29,26.2,26.9,27,24.6z"/>
	<path class="st0" d="M30.5,18c0.1-7.7-10.2-11-14.7-4.8c-1,1.4-1.6,3.1-1.6,4.8c0,3.1-2.1,5.8-5.2,6.6c-0.3,0.1-0.5,0.4-0.4,0.8
		c0,0,0,0,0,0c0.5,1.2,2.5-0.3,3.2-0.7c5.7-3.7,1.5-9,6.7-12.4c4.3-3.1,10.9,0.4,10.7,5.7c0,5.3-1.9,10.4-5.5,14.4
		c-0.2,0.2-0.2,0.6,0,0.9c0.1,0.1,0.3,0.2,0.5,0.2C28.5,29.8,30.4,23.6,30.5,18z"/>
	<path class="st0" d="M28.8,9.6c-5-4-13.2-2.1-15.9,3.7c-1.9,3.3,0.2,8-4.8,9c-0.3,0.1-0.6,0.4-0.5,0.7c0.1,0.3,0.4,0.6,0.7,0.5
		c2.7-0.5,4.7-2.8,4.7-5.5c0-4,2.5-7.5,6.3-8.8C25.1,7,32,11.8,31.8,18c0,4.8-1.4,9.4-4.1,13.4c-0.2,0.3-0.1,0.7,0.2,0.9
		c0,0,0,0,0,0c1.1,0.8,2.7-3.8,3.2-4.6C33.4,21.9,34.6,13.8,28.8,9.6z"/>
	<path class="st0" d="M8.7,10.5c-0.5,0.9-2.7,5.3-1.2,5.7c0.3,0.1,0.7-0.1,0.7-0.5c0,0,0,0,0,0c0.4-2.4,1.4-4.7,3-6.6
		c8.4-10.4,25.6-4.4,25.6,9c0,1.5-0.2,2.9-0.7,4.3c-0.1,0.3,0.1,0.7,0.4,0.8c0,0,0,0,0,0c1.4,0.4,1.4-4.1,1.5-5.1
		C37.9,2,16.6-3.4,8.7,10.5z"/>
	<path class="st0" d="M31,8.2C24.3,2,12.5,5.3,9.9,14c-0.4,1.3-0.7,2.7-0.7,4.1c0,1-0.7,1.8-1.7,1.9c-0.3,0-0.6,0.3-0.6,0.7
		c0,0.3,0.3,0.6,0.7,0.6c3.7-0.4,2.5-4.3,3.5-6.8c6-15.5,30.7-7.9,20.9,14.4c-0.1,0.3,0,0.7,0.4,0.8c0.3,0.1,0.6,0,0.8-0.3
		c1.5-3.5,2.3-7.3,2.3-11.2C35.5,14.3,33.9,10.6,31,8.2z"/>
	<path class="st0" d="M5.1,6.2c0.3,0,0.6-0.3,0.6-0.6V1.2h4.3c0.3,0,0.6-0.3,0.6-0.6S10.4,0,10.1,0h-5C4.8,0,4.5,0.3,4.5,0.6v5
		C4.5,5.9,4.8,6.2,5.1,6.2z"/>
	<path class="st0" d="M39.9,0h-5c-0.3,0-0.6,0.3-0.6,0.6s0.3,0.6,0.6,0.6h4.3v4.3c0,0.3,0.3,0.6,0.6,0.6s0.6-0.3,0.6-0.6v-5
		C40.5,0.3,40.2,0,39.9,0z"/>
	<path class="st0" d="M39.9,29.8c-0.3,0-0.6,0.3-0.6,0.6v4.3h-4.3c-0.3,0-0.6,0.3-0.6,0.6s0.3,0.6,0.6,0.6h5c0.3,0,0.6-0.3,0.6-0.6
		v-5C40.5,30.1,40.2,29.8,39.9,29.8z"/>
	<path class="st0" d="M10.1,34.8H5.7v-4.3c0-0.3-0.3-0.6-0.6-0.6c-0.3,0-0.6,0.3-0.6,0.6v5c0,0.3,0.3,0.6,0.6,0.6h5
		c0.3,0,0.6-0.3,0.6-0.6S10.4,34.8,10.1,34.8z"/>
</g>
</svg>
