<svg xmlns="http://www.w3.org/2000/svg" xmlns:xlink="http://www.w3.org/1999/xlink" width="339" height="341.482" viewBox="0 0 339 341.482">
  <defs>
    <filter id="Rectangle_156" x="0" y="0" width="44" height="44" filterUnits="userSpaceOnUse">
      <feOffset dy="2" input="SourceAlpha"/>
      <feGaussianBlur stdDeviation="1.5" result="blur"/>
      <feFlood flood-opacity="0.051"/>
      <feComposite operator="in" in2="blur"/>
      <feComposite in="SourceGraphic"/>
    </filter>
    <filter id="Rectangle_156-2" x="295" y="0" width="44" height="44" filterUnits="userSpaceOnUse">
      <feOffset dy="2" input="SourceAlpha"/>
      <feGaussianBlur stdDeviation="1.5" result="blur-2"/>
      <feFlood flood-opacity="0.051"/>
      <feComposite operator="in" in2="blur-2"/>
      <feComposite in="SourceGraphic"/>
    </filter>
  </defs>
  <g id="calendar" transform="translate(-285.5 -233.5)">
    <text id="January_2018" data-name="January 2018" transform="translate(456 259)" fill="#37c12f" font-size="15" font-family="Roboto-Bold, Roboto" font-weight="700"><tspan x="-52.679" y="0">JANUARY 2018</tspan></text>
    <g id="days" transform="translate(0 18)">
      <g id="Rectangle_169" data-name="Rectangle 169" transform="translate(290 273)" fill="#f5f7f9" stroke="#e8e9ec" stroke-width="1">
        <rect width="330" height="48" stroke="none"/>
        <rect x="0.5" y="0.5" width="329" height="47" fill="none"/>
      </g>
      <text id="SU" transform="translate(316 301)" fill="#a3a6b4" font-size="14" font-family="Roboto-Bold, Roboto" font-weight="700"><tspan x="-8.911" y="0">SU</tspan></text>
      <text id="MO" transform="translate(362 301)" fill="#a3a6b4" font-size="14" font-family="Roboto-Bold, Roboto" font-weight="700"><tspan x="-10.965" y="0">MO</tspan></text>
      <text id="TU" transform="translate(411 301)" fill="#a3a6b4" font-size="14" font-family="Roboto-Bold, Roboto" font-weight="700"><tspan x="-8.938" y="0">TU</tspan></text>
      <text id="WE" transform="translate(458 301)" fill="#a3a6b4" font-size="14" font-family="Roboto-Bold, Roboto" font-weight="700"><tspan x="-10.059" y="0">WE</tspan></text>
      <text id="TH" transform="translate(507 301)" fill="#a3a6b4" font-size="14" font-family="Roboto-Bold, Roboto" font-weight="700"><tspan x="-9.276" y="0">TH</tspan></text>
      <text id="FR" transform="translate(552 301)" fill="#a3a6b4" font-size="14" font-family="Roboto-Bold, Roboto" font-weight="700"><tspan x="-8.302" y="0">FR</tspan></text>
      <text id="SA" transform="translate(597 301)" fill="#a3a6b4" font-size="14" font-family="Roboto-Bold, Roboto" font-weight="700"><tspan x="-9.013" y="0">SA</tspan></text>
    </g>
    <g id="date" transform="translate(0 18)">
      <g id="Rectangle_162" data-name="Rectangle 162" transform="translate(290 321)" fill="#fff" stroke="#e8e9ec" stroke-width="1">
        <rect width="47.982" height="47.982" stroke="none"/>
        <rect x="0.5" y="0.5" width="46.982" height="46.982" fill="none"/>
      </g>
    </g>
    <g id="date-2" data-name="date" transform="translate(0 18)">
      <g id="Rectangle_163" data-name="Rectangle 163" transform="translate(337.003 321)" fill="#fff" stroke="#e8e9ec" stroke-width="1">
        <rect width="47.982" height="47.982" stroke="none"/>
        <rect x="0.5" y="0.5" width="46.982" height="46.982" fill="none"/>
      </g>
      <text id="_1" data-name="1" transform="translate(361 351)" fill="#43425d" font-size="15" font-family="Roboto-Regular, Roboto"><tspan x="-4.211" y="0">1</tspan></text>
    </g>
    <g id="date-3" data-name="date" transform="translate(47 18)">
      <g id="Rectangle_163-2" data-name="Rectangle 163" transform="translate(337.003 321)" fill="#00bdff" stroke="#e8e9ec" stroke-width="1">
        <rect width="47.982" height="47.982" stroke="none"/>
        <rect x="0.5" y="0.5" width="46.982" height="46.982" fill="none"/>
      </g>
      <text id="_2" data-name="2" transform="translate(361 351)" fill="#fff" font-size="15" font-family="Roboto-Regular, Roboto"><tspan x="-4.211" y="0">2</tspan></text>
    </g>
    <g id="date-4" data-name="date" transform="translate(94 18)">
      <g id="Rectangle_163-3" data-name="Rectangle 163" transform="translate(337.003 321)" fill="#fff" stroke="#e8e9ec" stroke-width="1">
        <rect width="47.982" height="47.982" stroke="none"/>
        <rect x="0.5" y="0.5" width="46.982" height="46.982" fill="none"/>
      </g>
      <text id="_3" data-name="3" transform="translate(361 351)" fill="#43425d" font-size="15" font-family="Roboto-Regular, Roboto"><tspan x="-4.211" y="0">3</tspan></text>
    </g>
    <g id="date-5" data-name="date" transform="translate(141 18)">
      <g id="Rectangle_163-4" data-name="Rectangle 163" transform="translate(337.003 321)" fill="#fff" stroke="#e8e9ec" stroke-width="1">
        <rect width="47.982" height="47.982" stroke="none"/>
        <rect x="0.5" y="0.5" width="46.982" height="46.982" fill="none"/>
      </g>
      <text id="_4" data-name="4" transform="translate(361 351)" fill="#43425d" font-size="15" font-family="Roboto-Regular, Roboto"><tspan x="-4.211" y="0">4</tspan></text>
    </g>
    <g id="date-6" data-name="date" transform="translate(188 18)">
      <g id="Rectangle_163-5" data-name="Rectangle 163" transform="translate(337.003 321)" fill="#fff" stroke="#e8e9ec" stroke-width="1">
        <rect width="47.982" height="47.982" stroke="none"/>
        <rect x="0.5" y="0.5" width="46.982" height="46.982" fill="none"/>
      </g>
      <text id="_5" data-name="5" transform="translate(361 351)" fill="#43425d" font-size="15" font-family="Roboto-Regular, Roboto"><tspan x="-4.211" y="0">5</tspan></text>
    </g>
    <g id="date-7" data-name="date" transform="translate(235 18)">
      <g id="Rectangle_163-6" data-name="Rectangle 163" transform="translate(337.003 321)" fill="#fff" stroke="#e8e9ec" stroke-width="1">
        <rect width="47.982" height="47.982" stroke="none"/>
        <rect x="0.5" y="0.5" width="46.982" height="46.982" fill="none"/>
      </g>
      <text id="_6" data-name="6" transform="translate(361 351)" fill="#43425d" font-size="15" font-family="Roboto-Regular, Roboto"><tspan x="-4.211" y="0">6</tspan></text>
    </g>
    <g id="date-8" data-name="date" transform="translate(0 65)">
      <g id="Rectangle_163-7" data-name="Rectangle 163" transform="translate(337.003 321)" fill="#fff" stroke="#e8e9ec" stroke-width="1">
        <rect width="47.982" height="47.982" stroke="none"/>
        <rect x="0.5" y="0.5" width="46.982" height="46.982" fill="none"/>
      </g>
      <text id="_8" data-name="8" transform="translate(361 351)" fill="#43425d" font-size="15" font-family="Roboto-Regular, Roboto"><tspan x="-4.211" y="0">8</tspan></text>
    </g>
    <g id="date-9" data-name="date" transform="translate(-47 65)">
      <g id="Rectangle_163-8" data-name="Rectangle 163" transform="translate(337.003 321)" fill="#fff" stroke="#e8e9ec" stroke-width="1">
        <rect width="47.982" height="47.982" stroke="none"/>
        <rect x="0.5" y="0.5" width="46.982" height="46.982" fill="none"/>
      </g>
      <text id="_7" data-name="7" transform="translate(361 351)" fill="#43425d" font-size="15" font-family="Roboto-Regular, Roboto"><tspan x="-4.211" y="0">7</tspan></text>
    </g>
    <g id="date-10" data-name="date" transform="translate(47 65)">
      <g id="Rectangle_163-9" data-name="Rectangle 163" transform="translate(337.003 321)" fill="#fff" stroke="#e8e9ec" stroke-width="1">
        <rect width="47.982" height="47.982" stroke="none"/>
        <rect x="0.5" y="0.5" width="46.982" height="46.982" fill="none"/>
      </g>
      <text id="_9" data-name="9" transform="translate(361 351)" fill="#43425d" font-size="15" font-family="Roboto-Regular, Roboto"><tspan x="-4.211" y="0">9</tspan></text>
    </g>
    <g id="date-11" data-name="date" transform="translate(94 65)">
      <g id="Rectangle_163-10" data-name="Rectangle 163" transform="translate(337.003 321)" fill="#fff" stroke="#e8e9ec" stroke-width="1">
        <rect width="47.982" height="47.982" stroke="none"/>
        <rect x="0.5" y="0.5" width="46.982" height="46.982" fill="none"/>
      </g>
      <text id="_10" data-name="10" transform="translate(361 351)" fill="#43425d" font-size="15" font-family="Roboto-Regular, Roboto"><tspan x="-8.423" y="0">10</tspan></text>
    </g>
    <g id="date-12" data-name="date" transform="translate(141 65)">
      <g id="Rectangle_163-11" data-name="Rectangle 163" transform="translate(337.003 321)" fill="#fff" stroke="#e8e9ec" stroke-width="1">
        <rect width="47.982" height="47.982" stroke="none"/>
        <rect x="0.5" y="0.5" width="46.982" height="46.982" fill="none"/>
      </g>
      <text id="_11" data-name="11" transform="translate(361 351)" fill="#43425d" font-size="15" font-family="Roboto-Regular, Roboto"><tspan x="-8.423" y="0">11</tspan></text>
    </g>
    <g id="date-13" data-name="date" transform="translate(188 65)">
      <g id="Rectangle_163-12" data-name="Rectangle 163" transform="translate(337.003 321)" fill="#fff" stroke="#e8e9ec" stroke-width="1">
        <rect width="47.982" height="47.982" stroke="none"/>
        <rect x="0.5" y="0.5" width="46.982" height="46.982" fill="none"/>
      </g>
      <text id="_12" data-name="12" transform="translate(361 351)" fill="#43425d" font-size="15" font-family="Roboto-Regular, Roboto"><tspan x="-8.423" y="0">12</tspan></text>
    </g>
    <g id="date-14" data-name="date" transform="translate(235 65)">
      <g id="Rectangle_163-13" data-name="Rectangle 163" transform="translate(337.003 321)" fill="#fff" stroke="#e8e9ec" stroke-width="1">
        <rect width="47.982" height="47.982" stroke="none"/>
        <rect x="0.5" y="0.5" width="46.982" height="46.982" fill="none"/>
      </g>
      <text id="_13" data-name="13" transform="translate(361 351)" fill="#43425d" font-size="15" font-family="Roboto-Regular, Roboto"><tspan x="-8.423" y="0">13</tspan></text>
    </g>
    <g id="date-15" data-name="date" transform="translate(0 112)">
      <g id="Rectangle_163-14" data-name="Rectangle 163" transform="translate(337.003 321)" fill="#fff" stroke="#e8e9ec" stroke-width="1">
        <rect width="47.982" height="47.982" stroke="none"/>
        <rect x="0.5" y="0.5" width="46.982" height="46.982" fill="none"/>
      </g>
      <text id="_15" data-name="15" transform="translate(361 351)" fill="#43425d" font-size="15" font-family="Roboto-Regular, Roboto"><tspan x="-8.423" y="0">15</tspan></text>
    </g>
    <g id="date-16" data-name="date" transform="translate(0 159)">
      <g id="Rectangle_163-15" data-name="Rectangle 163" transform="translate(337.003 321)" fill="#fff" stroke="#e8e9ec" stroke-width="1">
        <rect width="47.982" height="47.982" stroke="none"/>
        <rect x="0.5" y="0.5" width="46.982" height="46.982" fill="none"/>
      </g>
      <text id="_22" data-name="22" transform="translate(361 351)" fill="#43425d" font-size="15" font-family="Roboto-Regular, Roboto"><tspan x="-8.423" y="0">22</tspan></text>
    </g>
    <g id="date-17" data-name="date" transform="translate(0 206)">
      <g id="Rectangle_163-16" data-name="Rectangle 163" transform="translate(337.003 321)" fill="#fff" stroke="#e8e9ec" stroke-width="1">
        <rect width="47.982" height="47.982" stroke="none"/>
        <rect x="0.5" y="0.5" width="46.982" height="46.982" fill="none"/>
      </g>
      <text id="_29" data-name="29" transform="translate(361 351)" fill="#43425d" font-size="15" font-family="Roboto-Regular, Roboto"><tspan x="-8.423" y="0">29</tspan></text>
    </g>
    <g id="date-18" data-name="date" transform="translate(-47 112)">
      <g id="Rectangle_163-17" data-name="Rectangle 163" transform="translate(337.003 321)" fill="#fff" stroke="#e8e9ec" stroke-width="1">
        <rect width="47.982" height="47.982" stroke="none"/>
        <rect x="0.5" y="0.5" width="46.982" height="46.982" fill="none"/>
      </g>
      <text id="_14" data-name="14" transform="translate(361 351)" fill="#43425d" font-size="15" font-family="Roboto-Regular, Roboto"><tspan x="-8.423" y="0">14</tspan></text>
    </g>
    <g id="date-19" data-name="date" transform="translate(-47 159)">
      <g id="Rectangle_163-18" data-name="Rectangle 163" transform="translate(337.003 321)" fill="#fff" stroke="#e8e9ec" stroke-width="1">
        <rect width="47.982" height="47.982" stroke="none"/>
        <rect x="0.5" y="0.5" width="46.982" height="46.982" fill="none"/>
      </g>
      <text id="_21" data-name="21" transform="translate(361 351)" fill="#43425d" font-size="15" font-family="Roboto-Regular, Roboto"><tspan x="-8.423" y="0">21</tspan></text>
    </g>
    <g id="date-20" data-name="date" transform="translate(-47 206)">
      <g id="Rectangle_163-19" data-name="Rectangle 163" transform="translate(337.003 321)" fill="#fff" stroke="#e8e9ec" stroke-width="1">
        <rect width="47.982" height="47.982" stroke="none"/>
        <rect x="0.5" y="0.5" width="46.982" height="46.982" fill="none"/>
      </g>
      <text id="_28" data-name="28" transform="translate(361 351)" fill="#43425d" font-size="15" font-family="Roboto-Regular, Roboto"><tspan x="-8.423" y="0">28</tspan></text>
    </g>
    <g id="date-21" data-name="date" transform="translate(47 112)">
      <g id="Rectangle_163-20" data-name="Rectangle 163" transform="translate(337.003 321)" fill="#fff" stroke="#e8e9ec" stroke-width="1">
        <rect width="47.982" height="47.982" stroke="none"/>
        <rect x="0.5" y="0.5" width="46.982" height="46.982" fill="none"/>
      </g>
      <text id="_16" data-name="16" transform="translate(361 351)" fill="#43425d" font-size="15" font-family="Roboto-Regular, Roboto"><tspan x="-8.423" y="0">16</tspan></text>
    </g>
    <g id="date-22" data-name="date" transform="translate(47 159)">
      <g id="Rectangle_163-21" data-name="Rectangle 163" transform="translate(337.003 321)" fill="#fff" stroke="#e8e9ec" stroke-width="1">
        <rect width="47.982" height="47.982" stroke="none"/>
        <rect x="0.5" y="0.5" width="46.982" height="46.982" fill="none"/>
      </g>
      <text id="_23" data-name="23" transform="translate(361 351)" fill="#43425d" font-size="15" font-family="Roboto-Regular, Roboto"><tspan x="-8.423" y="0">23</tspan></text>
    </g>
    <g id="date-23" data-name="date" transform="translate(47 206)">
      <g id="Rectangle_163-22" data-name="Rectangle 163" transform="translate(337.003 321)" fill="#fff" stroke="#e8e9ec" stroke-width="1">
        <rect width="47.982" height="47.982" stroke="none"/>
        <rect x="0.5" y="0.5" width="46.982" height="46.982" fill="none"/>
      </g>
      <text id="_30" data-name="30" transform="translate(361 351)" fill="#43425d" font-size="15" font-family="Roboto-Regular, Roboto"><tspan x="-8.423" y="0">30</tspan></text>
    </g>
    <g id="date-24" data-name="date" transform="translate(94 112)">
      <g id="Rectangle_163-23" data-name="Rectangle 163" transform="translate(337.003 321)" fill="#fff" stroke="#e8e9ec" stroke-width="1">
        <rect width="47.982" height="47.982" stroke="none"/>
        <rect x="0.5" y="0.5" width="46.982" height="46.982" fill="none"/>
      </g>
      <text id="_17" data-name="17" transform="translate(361 351)" fill="#43425d" font-size="15" font-family="Roboto-Regular, Roboto"><tspan x="-8.423" y="0">17</tspan></text>
    </g>
    <g id="date-25" data-name="date" transform="translate(94 159)">
      <g id="Rectangle_163-24" data-name="Rectangle 163" transform="translate(337.003 321)" fill="#fff" stroke="#e8e9ec" stroke-width="1">
        <rect width="47.982" height="47.982" stroke="none"/>
        <rect x="0.5" y="0.5" width="46.982" height="46.982" fill="none"/>
      </g>
      <text id="_24" data-name="24" transform="translate(361 351)" fill="#43425d" font-size="15" font-family="Roboto-Regular, Roboto"><tspan x="-8.423" y="0">24</tspan></text>
    </g>
    <g id="date-26" data-name="date" transform="translate(94 206)">
      <g id="Rectangle_163-25" data-name="Rectangle 163" transform="translate(337.003 321)" fill="#fff" stroke="#e8e9ec" stroke-width="1">
        <rect width="47.982" height="47.982" stroke="none"/>
        <rect x="0.5" y="0.5" width="46.982" height="46.982" fill="none"/>
      </g>
      <text id="_31" data-name="31" transform="translate(361 351)" fill="#43425d" font-size="15" font-family="Roboto-Regular, Roboto"><tspan x="-8.423" y="0">31</tspan></text>
    </g>
    <g id="date-27" data-name="date" transform="translate(141 112)">
      <g id="Rectangle_163-26" data-name="Rectangle 163" transform="translate(337.003 321)" fill="#fff" stroke="#e8e9ec" stroke-width="1">
        <rect width="47.982" height="47.982" stroke="none"/>
        <rect x="0.5" y="0.5" width="46.982" height="46.982" fill="none"/>
      </g>
      <text id="_18" data-name="18" transform="translate(361 351)" fill="#43425d" font-size="15" font-family="Roboto-Regular, Roboto"><tspan x="-8.423" y="0">18</tspan></text>
    </g>
    <g id="date-28" data-name="date" transform="translate(141 159)">
      <g id="Rectangle_163-27" data-name="Rectangle 163" transform="translate(337.003 321)" fill="#fff" stroke="#e8e9ec" stroke-width="1">
        <rect width="47.982" height="47.982" stroke="none"/>
        <rect x="0.5" y="0.5" width="46.982" height="46.982" fill="none"/>
      </g>
      <text id="_25" data-name="25" transform="translate(361 351)" fill="#43425d" font-size="15" font-family="Roboto-Regular, Roboto"><tspan x="-8.423" y="0">25</tspan></text>
    </g>
    <g id="date-29" data-name="date" transform="translate(141 206)">
      <g id="Rectangle_163-28" data-name="Rectangle 163" transform="translate(337.003 321)" fill="#fff" stroke="#e8e9ec" stroke-width="1">
        <rect width="47.982" height="47.982" stroke="none"/>
        <rect x="0.5" y="0.5" width="46.982" height="46.982" fill="none"/>
      </g>
    </g>
    <g id="date-30" data-name="date" transform="translate(188 112)">
      <g id="Rectangle_163-29" data-name="Rectangle 163" transform="translate(337.003 321)" fill="#fff" stroke="#e8e9ec" stroke-width="1">
        <rect width="47.982" height="47.982" stroke="none"/>
        <rect x="0.5" y="0.5" width="46.982" height="46.982" fill="none"/>
      </g>
      <text id="_19" data-name="19" transform="translate(361 351)" fill="#43425d" font-size="15" font-family="Roboto-Regular, Roboto"><tspan x="-8.423" y="0">19</tspan></text>
    </g>
    <g id="date-31" data-name="date" transform="translate(188 159)">
      <g id="Rectangle_163-30" data-name="Rectangle 163" transform="translate(337.003 321)" fill="#fff" stroke="#e8e9ec" stroke-width="1">
        <rect width="47.982" height="47.982" stroke="none"/>
        <rect x="0.5" y="0.5" width="46.982" height="46.982" fill="none"/>
      </g>
      <text id="_26" data-name="26" transform="translate(361 351)" fill="#43425d" font-size="15" font-family="Roboto-Regular, Roboto"><tspan x="-8.423" y="0">26</tspan></text>
    </g>
    <g id="date-32" data-name="date" transform="translate(188 206)">
      <g id="Rectangle_163-31" data-name="Rectangle 163" transform="translate(337.003 321)" fill="#fff" stroke="#e8e9ec" stroke-width="1">
        <rect width="47.982" height="47.982" stroke="none"/>
        <rect x="0.5" y="0.5" width="46.982" height="46.982" fill="none"/>
      </g>
    </g>
    <g id="date-33" data-name="date" transform="translate(235 112)">
      <g id="Rectangle_163-32" data-name="Rectangle 163" transform="translate(337.003 321)" fill="#fff" stroke="#e8e9ec" stroke-width="1">
        <rect width="47.982" height="47.982" stroke="none"/>
        <rect x="0.5" y="0.5" width="46.982" height="46.982" fill="none"/>
      </g>
      <text id="_20" data-name="20" transform="translate(361 351)" fill="#43425d" font-size="15" font-family="Roboto-Regular, Roboto"><tspan x="-8.423" y="0">20</tspan></text>
    </g>
    <g id="date-34" data-name="date" transform="translate(235 159)">
      <g id="Rectangle_163-33" data-name="Rectangle 163" transform="translate(337.003 321)" fill="#fff" stroke="#e8e9ec" stroke-width="1">
        <rect width="47.982" height="47.982" stroke="none"/>
        <rect x="0.5" y="0.5" width="46.982" height="46.982" fill="none"/>
      </g>
      <text id="_27" data-name="27" transform="translate(361 351)" fill="#43425d" font-size="15" font-family="Roboto-Regular, Roboto"><tspan x="-8.423" y="0">27</tspan></text>
    </g>
    <g id="date-35" data-name="date" transform="translate(235 206)">
      <g id="Rectangle_163-34" data-name="Rectangle 163" transform="translate(337.003 321)" fill="#fff" stroke="#e8e9ec" stroke-width="1">
        <rect width="47.982" height="47.982" stroke="none"/>
        <rect x="0.5" y="0.5" width="46.982" height="46.982" fill="none"/>
      </g>
    </g>
    <g id="previous" transform="translate(50 -1933)">
      <g transform="matrix(1, 0, 0, 1, 235.5, 2166.5)" filter="url(#Rectangle_156)">
        <g id="Rectangle_156-3" data-name="Rectangle 156" transform="translate(4.5 2.5)" fill="#fff" stroke="#e8e9ec" stroke-width="1">
          <rect width="35" height="35" rx="4" stroke="none"/>
          <rect x="0.5" y="0.5" width="34" height="34" rx="3.5" fill="none"/>
        </g>
      </g>
      <path id="Path_294" data-name="Path 294" d="M1811.182,4362.342l-7.567,6.731,7.567,6.2" transform="translate(-1550.116 -2181.842)" fill="none" stroke="#a4afb7" stroke-width="2"/>
    </g>
    <g id="next" transform="translate(345 -1933)">
      <g transform="matrix(1, 0, 0, 1, -59.5, 2166.5)" filter="url(#Rectangle_156-2)">
        <g id="Rectangle_156-4" data-name="Rectangle 156" transform="translate(299.5 2.5)" fill="#fff" stroke="#e8e9ec" stroke-width="1">
          <rect width="35" height="35" rx="4" stroke="none"/>
          <rect x="0.5" y="0.5" width="34" height="34" rx="3.5" fill="none"/>
        </g>
      </g>
      <path id="Path_294-2" data-name="Path 294" d="M1803.616,4362.342l7.57,6.731-7.57,6.2" transform="translate(-1549.549 -2181.842)" fill="none" stroke="#a4afb7" stroke-width="2"/>
    </g>
  </g>
</svg>
