<svg xmlns="http://www.w3.org/2000/svg" width="16" height="16" viewBox="0 0 16 16">
  <g id="Chat_Icon" data-name="Chat Icon" transform="translate(-34.699 -230)">
    <path id="Path_298" data-name="Path 298" d="M49.1,243.724a6.581,6.581,0,0,0-.592-9.206,7.525,7.525,0,0,1-7.228,9.576l-1.8-.011A6.555,6.555,0,0,0,44.121,246l6.112-.031a.47.47,0,0,0,.327-.8Z" fill="#bcbccb"/>
    <path id="Path_299" data-name="Path 299" d="M41.278,243.156A6.577,6.577,0,1,0,36.3,240.88l-1.462,1.443a.469.469,0,0,0,.327.8Zm-2.8-8.906h5.625a.469.469,0,0,1,0,.938H38.481a.469.469,0,0,1,0-.938Zm0,1.875h5.625a.469.469,0,0,1,0,.938H38.481a.469.469,0,0,1,0-.938Zm-.469,2.344a.469.469,0,0,1,.469-.469h5.625a.469.469,0,0,1,0,.938H38.481A.469.469,0,0,1,38.012,238.469Z" fill="#bcbccb"/>
  </g>
</svg>
