<?xml version="1.0"?>
<svg xmlns="http://www.w3.org/2000/svg" xmlns:xlink="http://www.w3.org/1999/xlink" version="1.1" id="Capa_1" x="0px" y="0px" viewBox="0 0 447.216 447.216" style="enable-background:new 0 0 447.216 447.216;" xml:space="preserve" width="512px" height="512px" class=""><g transform="matrix(-1 1.22465e-16 -1.22465e-16 -1 447.216 447.216)"><path style="fill:#E3E9ED" d="M239.282,15.673C239.282,6.792,232.49,0,223.608,0s-15.673,6.792-15.673,15.673v227.788h31.347  V15.673z" data-original="#3A2C51" class="" data-old_color="#3A2C51"/><path style="fill:#E3E9ED" d="M341.159,246.073c-2.612-4.702-7.837-7.837-13.584-7.837h-88.294h-31.347h-88.294  c-5.747,0-10.971,3.135-13.584,7.837c-2.612,4.702-2.612,10.971,0,15.673L210.025,439.38c2.612,4.702,7.837,7.837,13.584,7.837  s10.971-3.135,13.584-7.837l103.967-177.633C343.771,257.045,343.771,250.776,341.159,246.073z" data-original="#4DCFE0" class="active-path" data-old_color="#4DCFE0"/></g> </svg>
