<svg xmlns="http://www.w3.org/2000/svg" width="12.647" height="13.797" viewBox="0 0 12.647 13.797">
  <g id="Group_295" data-name="Group 295" transform="translate(0)">
    <g id="Group_294" data-name="Group 294">
      <path id="Path_429" data-name="Path 429" d="M259.124,255.226a.538.538,0,0,0-.539-.538h-5.551a.539.539,0,1,0,0,1.077h5.551A.539.539,0,0,0,259.124,255.226Z" transform="translate(-250.237 -249.298)" fill="#37c12f"/>
      <path id="Path_430" data-name="Path 430" d="M253.034,256.563a.539.539,0,1,0,0,1.077h3.371a.539.539,0,1,0,0-1.077Z" transform="translate(-250.266 -249.017)" fill="#37c12f"/>
      <path id="Path_431" data-name="Path 431" d="M254.684,262.719h-1.849a1.094,1.094,0,0,1-1.106-1.078v-9.485a1.093,1.093,0,0,1,1.106-1.077h6.8a1.092,1.092,0,0,1,1.105,1.077v3.315a.553.553,0,0,0,1.106,0v-3.315A2.186,2.186,0,0,0,259.631,250h-6.8a2.186,2.186,0,0,0-2.211,2.156v9.485a2.186,2.186,0,0,0,2.211,2.156h1.849a.539.539,0,1,0,0-1.077Z" transform="translate(-250.623 -250)" fill="#37c12f"/>
      <path id="Path_432" data-name="Path 432" d="M261.753,256.849a1.619,1.619,0,0,0-2.286,0l-2.959,2.952a.544.544,0,0,0-.135.225l-.645,2.121a.538.538,0,0,0,.516.7.555.555,0,0,0,.144-.02l2.175-.6a.543.543,0,0,0,.237-.138l2.952-2.947A1.618,1.618,0,0,0,261.753,256.849Zm-3.614,4.37-1.094.3.321-1.054,2-1.992.762.762Zm2.852-2.847-.1.1-.762-.762.1-.1a.539.539,0,0,1,.763.761Z" transform="translate(-249.58 -249.045)" fill="#37c12f"/>
      <path id="Path_433" data-name="Path 433" d="M258.585,252.813h-5.551a.539.539,0,1,0,0,1.077h5.551a.539.539,0,1,0,0-1.077Z" transform="translate(-250.237 -249.579)" fill="#37c12f"/>
    </g>
  </g>
</svg>
