<svg xmlns="http://www.w3.org/2000/svg" width="38.571" height="36" viewBox="0 0 38.571 36">
  <g id="icon" transform="translate(-254.799 -256.085)">
    <g id="Group_25" data-name="Group 25">
      <path id="Path_289" data-name="Path 289" d="M262.513,266.371a5.145,5.145,0,1,0-3.636-1.507A4.951,4.951,0,0,0,262.513,266.371Z" fill="#00bdff"/>
      <path id="Path_290" data-name="Path 290" d="M268.63,274.4a7.712,7.712,0,1,0-2.26-5.455A7.436,7.436,0,0,0,268.63,274.4Z" fill="#00bdff"/>
      <path id="Path_291" data-name="Path 291" d="M285.656,266.371a5.145,5.145,0,1,0-3.636-1.507A4.952,4.952,0,0,0,285.656,266.371Z" fill="#00bdff"/>
      <path id="Path_292" data-name="Path 292" d="M290.879,266.371a3.873,3.873,0,0,0-.874.422,13.245,13.245,0,0,1-1.958.854,7.051,7.051,0,0,1-2.391.432,8.078,8.078,0,0,1-2.672-.462,10,10,0,0,1,.1,1.325,8.845,8.845,0,0,1-1.628,5.143,6.925,6.925,0,0,1,5.324,2.572h2.692a4.608,4.608,0,0,0,2.772-.814,2.752,2.752,0,0,0,1.125-2.38Q293.37,266.371,290.879,266.371Z" fill="#00bdff"/>
      <path id="Path_293" data-name="Path 293" d="M287.877,282.613a17.135,17.135,0,0,0-.533-2.18,10.263,10.263,0,0,0-.864-1.958,7.081,7.081,0,0,0-1.245-1.628,5.262,5.262,0,0,0-1.718-1.075,6.049,6.049,0,0,0-2.24-.4,2.367,2.367,0,0,0-.864.432q-.663.432-1.466.964a9.331,9.331,0,0,1-9.724,0q-.8-.531-1.466-.964a2.367,2.367,0,0,0-.864-.432,6.049,6.049,0,0,0-2.24.4,5.252,5.252,0,0,0-1.718,1.075,7.084,7.084,0,0,0-1.246,1.628,10.324,10.324,0,0,0-.863,1.958,16.966,16.966,0,0,0-.533,2.18,20.653,20.653,0,0,0-.281,2.19q-.07,1.014-.07,2.079a5.006,5.006,0,0,0,1.466,3.807,5.422,5.422,0,0,0,3.9,1.4h17.559a5.422,5.422,0,0,0,3.9-1.4,5.006,5.006,0,0,0,1.467-3.807q0-1.065-.07-2.079A20.884,20.884,0,0,0,287.877,282.613Z" fill="#00bdff"/>
      <path id="Path_294" data-name="Path 294" d="M266.712,274.085a8.844,8.844,0,0,1-1.627-5.143,9.99,9.99,0,0,1,.1-1.325,8.07,8.07,0,0,1-2.672.462,7.045,7.045,0,0,1-2.39-.432,13.214,13.214,0,0,1-1.959-.854,3.852,3.852,0,0,0-.874-.422q-2.492,0-2.491,7.092a2.752,2.752,0,0,0,1.125,2.38,4.608,4.608,0,0,0,2.772.814h2.692A6.925,6.925,0,0,1,266.712,274.085Z" fill="#00bdff"/>
    </g>
  </g>
</svg>
