<svg id="Group_18" data-name="Group 18" xmlns="http://www.w3.org/2000/svg" width="41.638" height="42" viewBox="0 0 41.638 42">
  <g id="Group_17" data-name="Group 17">
    <path id="Path_269" data-name="Path 269" d="M474.4,507.2a8.985,8.985,0,0,0-2.035-5.721c-.192-.235-.4-.463-.616-.68l-.887-.888.887-.887c.217-.217.424-.445.616-.68A9.054,9.054,0,0,0,459.63,485.6a9.159,9.159,0,0,0-.681.616l-.887.887-2.049,2.049-1.535,1.535-5.634,5.634-1.535,1.535-.887-.887a6.368,6.368,0,0,1-.6-.695,6.157,6.157,0,0,1,8.61-8.61l2.064-2.064a9.052,9.052,0,0,0-12.122,13.418l.887.887-.887.888a9.052,9.052,0,1,0,12.8,12.8l.887-.887,2.05-2.049,1.535-1.535,5.634-5.634,1.535-1.535.887.887a6.368,6.368,0,0,1,.6.695,6.157,6.157,0,0,1-8.61,8.61l-2.064,2.064A9.053,9.053,0,0,0,474.4,507.2Zm-7.636-7.289-1.536,1.536-5.633,5.633-1.536,1.536-1.535-1.536-5.634-5.633-2.049,2.049,5.634,5.634,1.535,1.535-.887.887a6.464,6.464,0,0,1-.7.6,6.157,6.157,0,0,1-8.61-8.61,6.368,6.368,0,0,1,.6-.695l.887-.887,2.049-2.05,1.535-1.535,5.634-5.633,1.535-1.536,1.536,1.536,5.633,5.633,2.05-2.049-5.634-5.634-1.535-1.535.887-.887a6.369,6.369,0,0,1,.7-.6,6.157,6.157,0,0,1,8.61,8.61,6.368,6.368,0,0,1-.6.695l-.887.887Z" transform="translate(-437.243 -479)" fill="#00bdff"/>
    <path id="Path_270" data-name="Path 270" d="M440.864,486.241a3.549,3.549,0,0,0,.623-.054,3.631,3.631,0,0,0,2.933-2.882,3.573,3.573,0,0,0,.065-.684,3.621,3.621,0,1,0-3.621,3.62Zm0-4.344a.724.724,0,1,1-.724.724A.726.726,0,0,1,440.864,481.9Z" transform="translate(-437.243 -479)" fill="#00bdff"/>
    <path id="Path_271" data-name="Path 271" d="M474.428,486.144a3.53,3.53,0,0,0,.833.1,3.62,3.62,0,1,0-3.621-3.62,3.515,3.515,0,0,0,.1.832A3.624,3.624,0,0,0,474.428,486.144Zm.833-4.247a.724.724,0,1,1-.724.724A.726.726,0,0,1,475.261,481.9Z" transform="translate(-437.243 -479)" fill="#00bdff"/>
    <path id="Path_272" data-name="Path 272" d="M441.726,513.842a3.621,3.621,0,1,0,2.849,3.537,3.493,3.493,0,0,0-.116-.9A3.619,3.619,0,0,0,441.726,513.842Zm-.771,4.261a.724.724,0,1,1,.724-.724A.726.726,0,0,1,440.955,518.1Z" transform="translate(-437.243 -479)" fill="#00bdff"/>
    <path id="Path_273" data-name="Path 273" d="M475.261,513.759a3.463,3.463,0,0,0-.992.141,3.622,3.622,0,0,0-2.47,2.422,3.507,3.507,0,0,0-.159,1.057,3.62,3.62,0,1,0,3.621-3.62Zm0,4.344a.724.724,0,1,1,.724-.724A.725.725,0,0,1,475.261,518.1Z" transform="translate(-437.243 -479)" fill="#00bdff"/>
  </g>
</svg>
