<?xml version="1.0" encoding="utf-8"?>
<!-- Generator: Adobe Illustrator 23.0.1, SVG Export Plug-In . SVG Version: 6.00 Build 0)  -->
<svg version="1.1" id="Layer_1" xmlns="http://www.w3.org/2000/svg" xmlns:xlink="http://www.w3.org/1999/xlink" x="0px" y="0px"
	 viewBox="0 0 45 36" style="enable-background:new 0 0 45 36;" width="45px" height="36px" xml:space="preserve">
<style type="text/css">
	.st0{fill:#00BDFF;}
</style>
<g>
	<g transform="translate(0.000000,511.000000) scale(0.100000,-0.100000)">
		<path class="st0" d="M139.5,5108.4c-5-3.1-5-2.7-5-55c0-46.9,0-47.7,1.8-50.1c4.1-5.5,1.9-5.3,62.5-5.3h54.9l2.8-5.3
			c4.1-7.6,15.5-19.2,25.2-25.6s10.4-6.7,12.7-5.1c2.2,1.6,2.2,2.5,0.1,8.9c-2,6-3.8,14.4-4.7,21.8l-0.6,5.3h8.4
			c9.3,0,12.8,1.2,15.9,5.3c1.8,2.4,1.8,3.2,1.8,50.5c0,44.4-0.1,48.3-1.5,50.9c-3.1,5.7,2,5.3-89.1,5.3
			C145.5,5110,142.1,5109.9,139.5,5108.4z"/>
		<path class="st0" d="M92.5,4987.8c-8-2.5-15.8-9.8-18.2-16.8c-1.5-4.4-1.8-12.7-0.5-17.2c1.4-4.8,5.5-10.7,9.9-13.9
			c15.9-11.5,37.3-3.7,42.3,15.5c3.2,12-3,25.1-14.5,30.8C107.1,4988.3,96.8,4989.2,92.5,4987.8z"/>
		<path class="st0" d="M339.8,4986.8c-2.5-0.9-6.2-3.4-8.3-5.5c-13.8-13.3-10.1-35.8,7-44.2c6.7-3.3,15.5-3.3,22.2-0.2
			c10.3,4.8,15.4,12.1,16,22.9c0.5,8.5-1.2,13.8-6.4,19.4c-5.6,6.2-11,8.7-19.4,9.1C345.7,4988.5,343.3,4988.3,339.8,4986.8z"/>
		<path class="st0" d="M69.8,4933.4c-4.2-3-8-8.3-9.8-13.8c-1.4-4.1-8.4-78-8.5-89.1c0-9.7,3.8-15.3,13.5-19.5c3.7-1.7,7-2,30.1-3.2
			l25.9-1.4l0.6-10.2c1.4-25,2.6-37.5,3.7-40.1c2.5-6.1,12.2-8.3,17.3-4c1.5,1.2,3.1,3.1,3.7,4.1c1.5,2.6,3.4,58,2.3,64.6
			c-2.2,12.3-7.1,15.5-28.6,18.5l-13.3,1.9l-0.2,14.9c-0.2,14.3-0.2,14.8,1.3,12.7c3.1-4.4,6.3-7.5,9.3-9c2.9-1.4,5.6-1.6,33.4-1.6
			h30.2l2.3,2.1c5,4.7,5.9,9.8,2.8,15.4c-1,1.8-3.1,3.8-4.5,4.6c-1.8,0.8-9.8,1.9-22.6,3c-11,0.9-21.5,1.9-23.4,2.1l-3.6,0.5
			l-8.5,15.6c-4.7,8.6-9.7,17.4-11,19.7l-2.5,4l-9.2,0.1c-8.6,0-9.6,0.2-14.9,2.7c-3.2,1.5-7.3,3.9-9.1,5.3l-3.1,2.5L69.8,4933.4z"
			/>
		<path class="st0" d="M372.9,4933.1c-2-1.5-5.9-3.9-8.9-5.3c-4.8-2.2-6.2-2.5-14.6-2.5l-9.3-0.1l-2.5-4.2
			c-1.4-2.4-6.3-11.2-11-19.7l-8.4-15.5l-3.6-0.5c-2-0.3-12.5-1.2-23.3-2.1c-22.1-1.9-24.4-2.5-27.2-7.6c-3.1-5.5-2.2-10.7,2.8-15.4
			l2.3-2.1h30.2c27.8,0,30.6,0.2,33.4,1.6c3.1,1.5,6.3,4.6,9.3,9c1.4,2,1.4,1.5,1.3-12.7l-0.2-14.9l-13.2-1.9
			c-18.6-2.5-24-5.2-27.7-13.4c-1.3-3-1.4-5.6-1.3-20c0.2-9.1,0.5-23.6,0.8-32.3c0.8-17.1,1.4-19.6,6.1-22.4
			c3.2-1.9,9.2-1.7,12.4,0.3c5.1,3.1,5.3,4.2,7.8,45.5l0.6,9.3l25.9,1.4c23,1.2,26.3,1.5,30.1,3.2c9.7,4.2,13.4,9.7,13.4,19.4
			c0,6.3-6.7,83.2-7.6,86.7c-1.4,6.2-7.1,14.5-11.9,17.2C376.5,4935.8,376.3,4935.8,372.9,4933.1z"/>
		<path class="st0" d="M162.4,4852.7c-3.7-1.1-5.3-3.7-5.3-8.7c0-3.4,0.4-4.5,2.5-6.6l2.5-2.5h63h63l2.5,2.5c2,2.1,2.5,3.2,2.5,6.6
			c0,5.1-1.6,7.6-5.8,8.7C283.1,4853.9,166.3,4853.8,162.4,4852.7z"/>
		<path class="st0" d="M196.8,4824.6c2.8-3.4,8-9.6,11.5-13.8c3.6-4.2,6.5-7.9,6.5-8.2c0-0.3-8-10.1-17.8-21.9
			c-15.5-18.6-17.8-21.7-17.8-24.3c0-3.7,2.5-6.3,6.2-6.3c3.5,0,4.1,0.7,23.4,24.1c13.7,16.4,14.8,17.6,16.1,16.3
			c0.8-0.8,8.7-10.1,17.5-20.7c16.5-19.7,17.4-20.5,22.2-19.3c2.6,0.7,4.7,5,3.6,8c-0.4,1.1-8.2,10.9-17.1,21.6
			c-9,10.8-16.8,20.3-17.5,21.1c-1,1.4,0,2.9,9.3,14c5.8,7,11,13.2,11.7,14.1c1.2,1.4,0.8,1.4-7.3,1.4h-8.6l-7.4-8.9
			c-5.9-7.1-7.6-8.7-8.4-7.9c-0.5,0.6-3.9,4.7-7.6,9l-6.5,7.8h-8.5h-8.5L196.8,4824.6z"/>
		<path class="st0" d="M54.6,4801c-3.4-2-4.5-4.1-4.5-8.4c0-2.6,0.6-4.2,2.5-6.2l2.5-2.8l30.6-0.3l30.5-0.3l-0.4,8.3
			c-0.2,4.6-0.6,8.6-0.9,8.8c-0.6,0.6-39,2.5-50.2,2.5C58.9,4802.7,56.7,4802.3,54.6,4801z"/>
		<path class="st0" d="M352.1,4801.5c-9.2-0.5-16.8-1.1-17.1-1.4c-0.2-0.3-0.6-4.2-0.8-8.7l-0.4-8.3l30.6,0.3l30.6,0.3l2.5,2.8
			c4.3,4.8,3.1,12.1-2.6,15C391.8,4802.9,378.3,4802.9,352.1,4801.5z"/>
	</g>
</g>
</svg>
