<svg xmlns="http://www.w3.org/2000/svg" width="17.33" height="19.805" viewBox="0 0 17.33 19.805">
  <path id="lock-open-icon" d="M1,18.568a1.169,1.169,0,0,0,1.238,1.238H17.092a1.169,1.169,0,0,0,1.238-1.238V7.427a1.169,1.169,0,0,0-1.238-1.238h-9.9V4.951A2.483,2.483,0,0,1,9.665,2.476a2.227,2.227,0,0,1,1.857.866l.866.866L14.245,2.6l-.866-.99A5.367,5.367,0,0,0,9.665,0,4.966,4.966,0,0,0,4.714,4.951V6.189H2.238A1.169,1.169,0,0,0,1,7.427ZM9.665,9.9a2.483,2.483,0,0,1,2.476,2.476,2.4,2.4,0,0,1-1.238,2.1v1.609H8.427V14.483a2.4,2.4,0,0,1-1.238-2.1A2.483,2.483,0,0,1,9.665,9.9Z" transform="translate(-1)" fill="#ff7285"/>
</svg>
