<svg id="Logo" xmlns="http://www.w3.org/2000/svg" width="122.212" height="42" viewBox="0 0 122.212 42">
  <g id="Group_16" data-name="Group 16" transform="translate(51.474 10.204)">
    <g id="Group_15" data-name="Group 15">
      <g id="Group_14" data-name="Group 14">
        <g id="Group_11" data-name="Group 11" transform="translate(0 0.001)">
          <g id="Group_10" data-name="Group 10">
            <path id="Path_266" data-name="Path 266" d="M509.26,489.2V510.8h-6.107v-8.42h-8.328v8.42h-6.108V489.2h6.108v8.112h8.328V489.2Z" transform="translate(-488.717 -489.205)" fill="#37c12f"/>
          </g>
        </g>
        <g id="Group_13" data-name="Group 13" transform="translate(23.576)">
          <g id="Group_12" data-name="Group 12">
            <path id="Path_267" data-name="Path 267" d="M532.124,510.7l-.132-.193-4.462-6.5a7.412,7.412,0,0,0,3.131-2.729,7.52,7.52,0,0,0,1.095-4.087,7.315,7.315,0,0,0-4.5-7.017,12.314,12.314,0,0,0-5.09-.972h-9.87V510.8h4.385V504.57a3.44,3.44,0,0,1,5.745-2.555c.041.038.085.079.126.121a3.439,3.439,0,0,1,1.007,2.434V510.8h8.632Zm-11.876-10.639a2.521,2.521,0,1,1,2.522-2.522A2.521,2.521,0,0,1,520.248,500.064Z" transform="translate(-512.293 -489.204)" fill="#37c12f"/>
          </g>
        </g>
        <path id="Path_268" data-name="Path 268" d="M553.841,510.8l-.062-11.443-5.552,9.315h-2.714l-5.521-9.007V510.8h-5.645V489.2h5.028l7.588,12.461,7.4-12.461h5.028l.062,21.591Z" transform="translate(-488.717 -489.204)" fill="#37c12f"/>
      </g>
    </g>
  </g>
  <g id="Group_18" data-name="Group 18">
    <g id="Group_17" data-name="Group 17">
      <path id="Path_269" data-name="Path 269" d="M474.4,507.2a8.985,8.985,0,0,0-2.035-5.721c-.192-.235-.4-.463-.616-.68l-.887-.888.887-.887c.217-.217.424-.445.616-.68A9.054,9.054,0,0,0,459.63,485.6a9.159,9.159,0,0,0-.681.616l-.887.887-2.049,2.049-1.535,1.535-5.634,5.634-1.535,1.535-.887-.887a6.368,6.368,0,0,1-.6-.695,6.157,6.157,0,0,1,8.61-8.61l2.064-2.064a9.052,9.052,0,0,0-12.122,13.418l.887.887-.887.888a9.052,9.052,0,1,0,12.8,12.8l.887-.887,2.05-2.049,1.535-1.535,5.634-5.634,1.535-1.535.887.887a6.368,6.368,0,0,1,.6.695,6.157,6.157,0,0,1-8.61,8.61l-2.064,2.064A9.053,9.053,0,0,0,474.4,507.2Zm-7.636-7.289-1.536,1.536-5.633,5.633-1.536,1.536-1.535-1.536-5.634-5.633-2.049,2.049,5.634,5.634,1.535,1.535-.887.887a6.464,6.464,0,0,1-.7.6,6.157,6.157,0,0,1-8.61-8.61,6.368,6.368,0,0,1,.6-.695l.887-.887,2.049-2.05,1.535-1.535,5.634-5.633,1.535-1.536,1.536,1.536,5.633,5.633,2.05-2.049-5.634-5.634-1.535-1.535.887-.887a6.369,6.369,0,0,1,.7-.6,6.157,6.157,0,0,1,8.61,8.61,6.368,6.368,0,0,1-.6.695l-.887.887Z" transform="translate(-437.243 -479)" fill="#00bdff"/>
      <path id="Path_270" data-name="Path 270" d="M440.864,486.241a3.549,3.549,0,0,0,.623-.054,3.631,3.631,0,0,0,2.933-2.882,3.573,3.573,0,0,0,.065-.684,3.621,3.621,0,1,0-3.621,3.62Zm0-4.344a.724.724,0,1,1-.724.724A.726.726,0,0,1,440.864,481.9Z" transform="translate(-437.243 -479)" fill="#00bdff"/>
      <path id="Path_271" data-name="Path 271" d="M474.428,486.144a3.53,3.53,0,0,0,.833.1,3.62,3.62,0,1,0-3.621-3.62,3.515,3.515,0,0,0,.1.832A3.624,3.624,0,0,0,474.428,486.144Zm.833-4.247a.724.724,0,1,1-.724.724A.726.726,0,0,1,475.261,481.9Z" transform="translate(-437.243 -479)" fill="#00bdff"/>
      <path id="Path_272" data-name="Path 272" d="M441.726,513.842a3.621,3.621,0,1,0,2.849,3.537,3.493,3.493,0,0,0-.116-.9A3.619,3.619,0,0,0,441.726,513.842Zm-.771,4.261a.724.724,0,1,1,.724-.724A.726.726,0,0,1,440.955,518.1Z" transform="translate(-437.243 -479)" fill="#00bdff"/>
      <path id="Path_273" data-name="Path 273" d="M475.261,513.759a3.463,3.463,0,0,0-.992.141,3.622,3.622,0,0,0-2.47,2.422,3.507,3.507,0,0,0-.159,1.057,3.62,3.62,0,1,0,3.621-3.62Zm0,4.344a.724.724,0,1,1,.724-.724A.725.725,0,0,1,475.261,518.1Z" transform="translate(-437.243 -479)" fill="#00bdff"/>
    </g>
  </g>
</svg>
