<svg id="resign" xmlns="http://www.w3.org/2000/svg" width="13.797" height="13.797" viewBox="0 0 13.797 13.797">
  <g id="Group_291" data-name="Group 291" transform="translate(0)">
    <g id="Group_290" data-name="Group 290">
      <path id="Path_427" data-name="Path 427" d="M256.9,250a6.9,6.9,0,1,0,6.9,6.9A6.895,6.895,0,0,0,256.9,250Zm0,12.719a5.82,5.82,0,1,1,5.82-5.821A5.818,5.818,0,0,1,256.9,262.719Z" transform="translate(-250 -250)" fill="#ffb451"/>
    </g>
  </g>
  <g id="Group_293" data-name="Group 293" transform="translate(4.38 4.38)">
    <g id="Group_292" data-name="Group 292">
      <path id="Path_428" data-name="Path 428" d="M258.688,257.926l-1.6-1.6,1.6-1.6a.539.539,0,1,0-.762-.762l-1.6,1.6-1.6-1.6a.539.539,0,1,0-.762.762l1.6,1.6-1.6,1.6a.539.539,0,1,0,.762.762l1.6-1.6,1.6,1.6a.539.539,0,0,0,.762-.762Z" transform="translate(-253.81 -253.81)" fill="#ffb451"/>
    </g>
  </g>
</svg>
