<svg xmlns="http://www.w3.org/2000/svg" width="45" height="36" viewBox="0 0 45 36">
  <g id="Group_27" data-name="Group 27" transform="translate(-251.588 -256.088)">
    <g id="Group_26" data-name="Group 26">
      <path id="Path_295" data-name="Path 295" d="M295.487,257.189a3.615,3.615,0,0,0-2.649-1.1h-37.5a3.759,3.759,0,0,0-3.75,3.75v28.5a3.761,3.761,0,0,0,3.75,3.75h37.5a3.761,3.761,0,0,0,3.75-3.75v-28.5A3.613,3.613,0,0,0,295.487,257.189Zm-1.9,31.149a.76.76,0,0,1-.75.75h-37.5a.76.76,0,0,1-.75-.75v-14.25h39v14.25Zm0-23.25h-39v-5.251a.758.758,0,0,1,.75-.749h37.5a.76.76,0,0,1,.75.749v5.251Z" fill="#00bdff"/>
      <rect id="Rectangle_558" data-name="Rectangle 558" width="6" height="3" transform="translate(257.588 283.088)" fill="#00bdff"/>
      <rect id="Rectangle_559" data-name="Rectangle 559" width="9" height="3" transform="translate(266.588 283.088)" fill="#00bdff"/>
    </g>
  </g>
</svg>
