<svg xmlns="http://www.w3.org/2000/svg" width="12" height="12" viewBox="0 0 12 12">
  <g id="sort" transform="translate(-159 -159)">
    <path id="Path_422" data-name="Path 422" d="M161.887,170.84a.546.546,0,0,0,.772,0l2.727-2.727a.545.545,0,1,0-.771-.771l-1.8,1.8v-9.593a.546.546,0,0,0-1.091,0v9.593l-1.8-1.8a.546.546,0,1,0-.772.771Z" fill="#4b4e56"/>
    <path id="Path_423" data-name="Path 423" d="M167.342,159.16l-2.727,2.727a.545.545,0,1,0,.771.771l1.8-1.8v9.593a.545.545,0,0,0,1.091,0v-9.593l1.8,1.8a.546.546,0,0,0,.772-.771l-2.728-2.727A.545.545,0,0,0,167.342,159.16Z" fill="#4b4e56"/>
  </g>
</svg>
