<svg xmlns="http://www.w3.org/2000/svg" width="16" height="16" viewBox="0 0 16 16">
  <g id="Support_Iocn" data-name="Support Iocn" transform="translate(-248 -248)">
    <circle id="Ellipse_1" data-name="Ellipse 1" cx="1.633" cy="1.633" r="1.633" transform="translate(254.367 254.367)" fill="#bcbccb"/>
    <path id="Path_301" data-name="Path 301" d="M262.527,254.025h-.34a6.408,6.408,0,0,0-.416-1l.241-.24a1.474,1.474,0,0,0,0-2.084l-.71-.71a1.473,1.473,0,0,0-2.083,0l-.241.241a6.4,6.4,0,0,0-1-.416v-.34A1.475,1.475,0,0,0,256.5,248h-1a1.475,1.475,0,0,0-1.473,1.473v.34a6.4,6.4,0,0,0-1,.416l-.24-.241a1.474,1.474,0,0,0-2.084,0l-.71.71a1.473,1.473,0,0,0,0,2.083l.241.241a6.508,6.508,0,0,0-.417,1h-.339A1.475,1.475,0,0,0,248,255.5v1a1.475,1.475,0,0,0,1.473,1.473h.339a6.508,6.508,0,0,0,.417,1l-.241.241a1.473,1.473,0,0,0,0,2.083l.71.71a1.473,1.473,0,0,0,2.083,0l.241-.241a6.507,6.507,0,0,0,1,.417v.339A1.475,1.475,0,0,0,255.5,264h1a1.475,1.475,0,0,0,1.473-1.473v-.339a6.507,6.507,0,0,0,1-.417l.24.241a1.474,1.474,0,0,0,2.084,0l.71-.71a1.473,1.473,0,0,0,0-2.083l-.241-.241a6.408,6.408,0,0,0,.416-1h.34A1.475,1.475,0,0,0,264,256.5v-1A1.475,1.475,0,0,0,262.527,254.025ZM256,259.481A3.481,3.481,0,1,1,259.481,256,3.484,3.484,0,0,1,256,259.481Z" fill="#bcbccb"/>
  </g>
</svg>
