<svg xmlns="http://www.w3.org/2000/svg" width="14.857" height="16" viewBox="0 0 14.857 16">
  <g id="icon" transform="translate(0)">
    <path id="Path_285" data-name="Path 285" d="M227.756,230.05a1.1,1.1,0,0,0-.8-.34h-1.143v-.857a1.432,1.432,0,0,0-1.428-1.429h-.572a1.432,1.432,0,0,0-1.428,1.429v.857h-3.429v-.857a1.434,1.434,0,0,0-1.428-1.429h-.572a1.434,1.434,0,0,0-1.429,1.429v.857h-1.142a1.159,1.159,0,0,0-1.143,1.143v11.429a1.158,1.158,0,0,0,1.143,1.142h12.571a1.16,1.16,0,0,0,1.143-1.142V230.853A1.1,1.1,0,0,0,227.756,230.05Zm-10.8,12.232h-2.571V239.71h2.571Zm0-3.143h-2.571v-2.857h2.571Zm0-3.429h-2.571v-2.571h2.571Zm-.2-4.085a.275.275,0,0,1-.085-.2v-2.572a.289.289,0,0,1,.286-.285h.572a.289.289,0,0,1,.285.285v2.572a.29.29,0,0,1-.285.285h-.572A.275.275,0,0,1,216.751,231.625Zm3.63,10.657h-2.858V239.71h2.858v2.572Zm0-3.143h-2.858v-2.857h2.858v2.857Zm0-3.429h-2.858v-2.571h2.858v2.571Zm3.428,6.572h-2.857V239.71h2.857Zm0-3.143h-2.857v-2.857h2.857Zm0-3.429h-2.857v-2.571h2.857Zm-.2-4.085a.274.274,0,0,1-.084-.2v-2.572a.287.287,0,0,1,.285-.285h.572a.287.287,0,0,1,.285.285v2.572a.289.289,0,0,1-.285.285h-.572A.275.275,0,0,1,223.608,231.625Zm3.344,10.657H224.38V239.71h2.572Zm0-3.143H224.38v-2.857h2.572Zm0-3.429H224.38v-2.571h2.572Z" transform="translate(-213.238 -227.424)" />
  </g>
</svg>
