<svg id="Group_20" data-name="Group 20" xmlns="http://www.w3.org/2000/svg" width="20.105" height="16" viewBox="0 0 20.105 16">
  <g id="Group_19" data-name="Group 19">
    <path id="Path_279" data-name="Path 279" d="M230.148,225.379l-7.17,5.911a.171.171,0,0,1-.006.037.14.14,0,0,0-.007.038v5.985a.809.809,0,0,0,.8.8h4.789V233.36h3.193v4.789h4.788a.811.811,0,0,0,.8-.8v-5.985a.174.174,0,0,0-.013-.075Z" transform="translate(-220.096 -222.149)"/>
    <path id="Path_280" data-name="Path 280" d="M240.062,229.943l-2.731-2.269v-5.088a.384.384,0,0,0-.4-.4h-2.394a.384.384,0,0,0-.4.4v2.431l-3.043-2.544a1.547,1.547,0,0,0-1.895,0l-8.967,7.47a.362.362,0,0,0-.137.268.408.408,0,0,0,.087.293l.773.923a.428.428,0,0,0,.262.138.465.465,0,0,0,.3-.088l8.629-7.2,8.63,7.2a.385.385,0,0,0,.262.087h.037a.422.422,0,0,0,.262-.137l.773-.923a.4.4,0,0,0,.087-.293A.362.362,0,0,0,240.062,229.943Z" transform="translate(-220.096 -222.149)"/>
  </g>
</svg>
