<?xml version="1.0" encoding="utf-8"?>
<!-- Generator: Adobe Illustrator 23.0.1, SVG Export Plug-In . SVG Version: 6.00 Build 0)  -->
<svg version="1.1" id="Layer_1" xmlns="http://www.w3.org/2000/svg" xmlns:xlink="http://www.w3.org/1999/xlink" x="0px" y="0px"
	 viewBox="0 0 16 16" style="enable-background:new 0 0 16 16;" xml:space="preserve">
<g>
	<path d="M14.27,0h-2.24c-0.26,0-0.47,0.21-0.47,0.47s0.21,0.47,0.47,0.47h2.24c0.44,0,0.79,0.36,0.79,0.79v2.24
		c0,0.26,0.21,0.47,0.47,0.47S16,4.23,16,3.97V1.73C16,0.78,15.22,0,14.27,0z"/>
	<path d="M0.47,4.44c0.26,0,0.47-0.21,0.47-0.47V1.73c0-0.44,0.36-0.79,0.79-0.79h2.24c0.26,0,0.47-0.21,0.47-0.47S4.23,0,3.97,0
		H1.73C0.78,0,0,0.78,0,1.73v2.24C0,4.23,0.21,4.44,0.47,4.44z"/>
	<path d="M3.97,15.06H1.73c-0.44,0-0.79-0.36-0.79-0.79v-2.24c0-0.26-0.21-0.47-0.47-0.47S0,11.77,0,12.03v2.24
		C0,15.22,0.78,16,1.73,16h2.24c0.26,0,0.47-0.21,0.47-0.47S4.23,15.06,3.97,15.06z"/>
	<path d="M15.53,11.56c-0.26,0-0.47,0.21-0.47,0.47v2.24c0,0.44-0.36,0.79-0.79,0.79h-2.24c-0.26,0-0.47,0.21-0.47,0.47
		S11.77,16,12.03,16h2.24c0.95,0,1.73-0.78,1.73-1.73v-2.24C16,11.77,15.79,11.56,15.53,11.56z"/>
	<path d="M13.08,3.12C9.83,0.71,6.32,0.65,2.97,3.08c-0.21,0.15-0.26,0.45-0.1,0.65c0.15,0.21,0.45,0.26,0.65,0.1
		c3.03-2.2,6.09-2.12,9,0.04c0.21,0.15,0.5,0.11,0.66-0.1C13.34,3.57,13.29,3.28,13.08,3.12L13.08,3.12z"/>
	<path d="M8,3.28c-1.99,0-4.55,1.33-5.64,2.96C2.22,6.46,2.27,6.75,2.49,6.89C2.71,7.03,3,6.98,3.14,6.76
		C4.04,5.41,6.31,4.22,8,4.22c1.65,0,3.91,0.88,4.84,2.51c0.09,0.15,0.24,0.24,0.41,0.24c0.35,0,0.59-0.39,0.41-0.7
		C12.58,4.39,10.06,3.28,8,3.28L8,3.28z"/>
	<path d="M5.47,11C5.47,9.47,6.6,8.22,8,8.22s2.53,1.25,2.53,2.78v0.5c0,0.26,0.21,0.47,0.47,0.47s0.47-0.21,0.47-0.47V11
		c0-2.05-1.56-3.72-3.47-3.72S4.53,8.95,4.53,11c0,1.99,1.5,3.06,2.16,4.02c0.09,0.13,0.24,0.2,0.39,0.2c0.37,0,0.6-0.42,0.38-0.74
		C6.75,13.45,5.47,12.59,5.47,11z"/>
	<path d="M13.17,12.71c1.45-2.9-1.13-7.43-5.17-7.43c-2.85,0-5.47,2.41-5.47,5.47c0,1.11,0.14,2.05,0.84,3.02
		c0.15,0.21,0.44,0.26,0.65,0.11c0.21-0.15,0.26-0.44,0.11-0.65c-0.49-0.69-0.66-1.33-0.66-2.48c0-2.41,2.12-4.53,4.53-4.53
		c1.22,0,2.42,0.54,3.29,1.47c1.24,1.32,1.69,3.3,1.04,4.6c-0.68,1.35-2.86,0.97-2.86-0.79c0-3.48-3.56-2.44-2.92,0.11
		c0.06,0.25,0.32,0.4,0.57,0.34c0.25-0.06,0.4-0.32,0.34-0.57C7.29,10.73,7.59,10.22,8,10.22c0.37,0,0.53,0.64,0.53,1.28
		C8.53,14.24,12.05,14.95,13.17,12.71L13.17,12.71z"/>
</g>
</svg>
