<svg xmlns="http://www.w3.org/2000/svg" width="16.001" height="16" viewBox="0 0 16.001 16">
  <g id="Group_23" data-name="Group 23" transform="translate(0)">
    <path id="Path_288" data-name="Path 288" d="M214.432,239.2a1.309,1.309,0,0,0-1.827-1.827,4.97,4.97,0,0,0-1.963,1.233l-1.827,1.827-7.592-1.816a.332.332,0,0,0-.342.092l-1.462,1.461a.352.352,0,0,0-.1.308.383.383,0,0,0,.2.274l5.8,3.186-2.957,2.957-2.215-.6a.223.223,0,0,0-.091-.012.353.353,0,0,0-.262.1l-1.1,1.107a.39.39,0,0,0-.1.285.342.342,0,0,0,.148.263l2.877,2.158,2.158,2.877a.409.409,0,0,0,.274.148h.023a.354.354,0,0,0,.262-.1l1.1-1.1a.349.349,0,0,0,.092-.354l-.605-2.215,2.957-2.957,3.185,5.8a.318.318,0,0,0,.24.183.272.272,0,0,0,.08.011.323.323,0,0,0,.217-.069l1.461-1.1a.346.346,0,0,0,.137-.376L211.362,243l1.838-1.838A4.989,4.989,0,0,0,214.432,239.2Z" transform="translate(-198.585 -237.214)" />
  </g>
</svg>
