<svg xmlns="http://www.w3.org/2000/svg" width="16.915" height="16" viewBox="0 0 16.915 16">
  <path id="Path_282" data-name="Path 282" d="M226.927,238.62c.144.154.274.289.387.4s.237.225.367.332a.587.587,0,0,0,.287.161q.171,0,.663-.493c.328-.328.493-.549.493-.663q0-.081-.287-.412t-.733-.784c-.3-.3-.588-.589-.87-.864s-.556-.541-.824-.8-.422-.407-.462-.447a.318.318,0,0,0-.231-.1c-.114,0-.336.164-.664.493s-.492.549-.492.663a.577.577,0,0,0,.161.286,4.911,4.911,0,0,0,.331.367q.171.171.4.387l.262.246-.965.965-3.568-3.568a6.066,6.066,0,0,0,1.316-3.668,3.532,3.532,0,0,0-3.7-3.7,5.9,5.9,0,0,0-3.146.955,7.641,7.641,0,0,0-2.492,2.493,5.89,5.89,0,0,0-.955,3.145,3.531,3.531,0,0,0,3.7,3.7,6.068,6.068,0,0,0,3.669-1.317l6.743,6.744a.931.931,0,0,0,.684.281,1.368,1.368,0,0,0,1.206-1.206.93.93,0,0,0-.281-.683l-2.211-2.211.964-.965Q226.711,238.389,226.927,238.62Zm-6.919-5.969a1.861,1.861,0,0,1-1.367.562,1.958,1.958,0,0,1-.834-.191,1.974,1.974,0,0,1,.191.835,1.933,1.933,0,1,1-1.93-1.93,1.966,1.966,0,0,1,.834.191,1.973,1.973,0,0,1-.191-.834,1.93,1.93,0,1,1,3.3,1.367Z" transform="translate(-212.209 -227.424)" />
</svg>
