<svg xmlns="http://www.w3.org/2000/svg" width="18" height="18" viewBox="0 0 18 18">
  <g id="Group_274" data-name="Group 274" transform="translate(-247 -247)">
    <circle id="Ellipse_341" data-name="Ellipse 341" cx="5.063" cy="5.063" r="5.063" transform="translate(250.938 250.938)"/>
    <path id="Path_407" data-name="Path 407" d="M256,249.813a.563.563,0,0,1-.563-.563v-1.687a.563.563,0,1,1,1.125,0v1.687A.562.562,0,0,1,256,249.813Z"/>
    <path id="Path_408" data-name="Path 408" d="M256,265a.563.563,0,0,1-.563-.562V262.75a.563.563,0,0,1,1.125,0v1.688A.562.562,0,0,1,256,265Z"/>
    <path id="Path_409" data-name="Path 409" d="M264.437,256.563H262.75a.562.562,0,1,1,0-1.125h1.687a.562.562,0,1,1,0,1.125Z"/>
    <path id="Path_410" data-name="Path 410" d="M249.25,256.563h-1.688a.562.562,0,0,1,0-1.125h1.688a.562.562,0,0,1,0,1.125Z"/>
    <path id="Path_411" data-name="Path 411" d="M260.773,251.79a.564.564,0,0,1-.4-.961l1.194-1.193a.562.562,0,0,1,.8.795l-1.193,1.194a.561.561,0,0,1-.4.165Z"/>
    <path id="Path_412" data-name="Path 412" d="M250.034,262.529a.564.564,0,0,1-.4-.961l1.193-1.193a.563.563,0,0,1,.8.8l-1.194,1.193a.557.557,0,0,1-.4.165Z"/>
    <path id="Path_413" data-name="Path 413" d="M261.966,262.529a.557.557,0,0,1-.4-.165l-1.194-1.193a.563.563,0,0,1,.8-.8l1.193,1.194a.563.563,0,0,1-.4.96Z"/>
    <path id="Path_414" data-name="Path 414" d="M251.227,251.79a.561.561,0,0,1-.4-.165l-1.193-1.193a.563.563,0,1,1,.795-.8l1.194,1.193A.564.564,0,0,1,251.227,251.79Z"/>
  </g>
</svg>
