<svg xmlns="http://www.w3.org/2000/svg" width="18" height="18" viewBox="0 0 18 18">
  <g id="Group_303" data-name="Group 303" transform="translate(-248 -248)">
    <g id="Group_298" data-name="Group 298" transform="translate(255.125 253.489)">
      <g id="Group_297" data-name="Group 297">
        <path id="Path_9118" data-name="Path 9118" d="M256,252.719a1.875,1.875,0,1,0,1.875,1.875A1.877,1.877,0,0,0,256,252.719Z" transform="translate(-254.125 -252.719)"/>
      </g>
    </g>
    <g id="Group_300" data-name="Group 300" transform="translate(248 248)">
      <g id="Group_299" data-name="Group 299">
        <path id="Path_9119" data-name="Path 9119" d="M265.472,255.418h-.73a7.922,7.922,0,0,0-1.151-2.772l.493-.494a.526.526,0,0,0,0-.746l-1.491-1.491a.525.525,0,0,0-.746,0l-.494.493a7.922,7.922,0,0,0-2.772-1.151v-.73a.527.527,0,0,0-.528-.528h-2.109a.527.527,0,0,0-.527.528v.73a7.923,7.923,0,0,0-2.772,1.151l-.494-.493a.526.526,0,0,0-.746,0l-1.491,1.491a.526.526,0,0,0,0,.746l.493.494a7.923,7.923,0,0,0-1.151,2.772h-.73a.527.527,0,0,0-.528.528v2.109a.527.527,0,0,0,.528.527h.73a7.922,7.922,0,0,0,1.151,2.772l-.493.494a.525.525,0,0,0,0,.746l1.491,1.491a.526.526,0,0,0,.746,0l.494-.493a7.922,7.922,0,0,0,2.772,1.151v.73a.527.527,0,0,0,.528.528h2.109a.527.527,0,0,0,.527-.528v-.73a7.922,7.922,0,0,0,2.772-1.151l.494.493a.526.526,0,0,0,.746,0l1.491-1.491a.526.526,0,0,0,0-.746l-.493-.494a7.922,7.922,0,0,0,1.151-2.772h.73a.527.527,0,0,0,.528-.528v-2.109A.527.527,0,0,0,265.472,255.418ZM257,261.746A4.746,4.746,0,1,1,261.746,257,4.765,4.765,0,0,1,257,261.746Z" transform="translate(-248 -248)"/>
      </g>
    </g>
    <g id="Group_302" data-name="Group 302" transform="translate(254.321 257.753)">
      <g id="Group_301" data-name="Group 301">
        <path id="Path_9120" data-name="Path 9120" d="M256,256.469a3.249,3.249,0,0,0-2.679,1.414,3.266,3.266,0,0,0,5.358,0A3.249,3.249,0,0,0,256,256.469Z" transform="translate(-253.321 -256.469)"/>
      </g>
    </g>
  </g>
</svg>
