<svg xmlns="http://www.w3.org/2000/svg" width="10.205" height="16" viewBox="0 0 10.205 16">
  <g id="icon" transform="translate(0)">
    <path id="Path_283" data-name="Path 283" d="M225.666,231.049a.353.353,0,0,0-.261-.1h-1.943a3.938,3.938,0,0,0-.728-1.636h2.648a.348.348,0,0,0,.363-.364v-1.159a.349.349,0,0,0-.363-.364h-9.454a.351.351,0,0,0-.364.364V229.3a.369.369,0,0,0,.364.364h1.647q2.4,0,3.046,1.284h-4.693a.349.349,0,0,0-.364.364v1.159a.349.349,0,0,0,.364.363h4.852a2.221,2.221,0,0,1-1.165,1.421,5.127,5.127,0,0,1-2.415.489h-1.272a.367.367,0,0,0-.364.363v1.443a.339.339,0,0,0,.1.25q2.183,2.319,5.659,6.489a.334.334,0,0,0,.284.136h2.216a.33.33,0,0,0,.33-.2.31.31,0,0,0-.046-.387q-3.318-4.068-5.215-6.09a5.773,5.773,0,0,0,3.136-1.25,4.254,4.254,0,0,0,1.466-2.66H225.4a.351.351,0,0,0,.364-.363v-1.159A.358.358,0,0,0,225.666,231.049Z" transform="translate(-215.564 -227.424)" />
  </g>
</svg>
