<svg xmlns="http://www.w3.org/2000/svg" width="14.857" height="16" viewBox="0 0 14.857 16">
  <path id="Path_281" data-name="Path 281" d="M231.13,233.544a1.1,1.1,0,0,0-.8-.339h-1.142v-.857a1.434,1.434,0,0,0-1.429-1.429h-.571a1.434,1.434,0,0,0-1.429,1.429v.857h-3.428v-.857a1.434,1.434,0,0,0-1.429-1.429h-.571a1.434,1.434,0,0,0-1.429,1.429v.857h-1.143a1.161,1.161,0,0,0-1.143,1.143v11.429a1.16,1.16,0,0,0,1.143,1.142h12.571a1.158,1.158,0,0,0,1.143-1.142V234.348A1.1,1.1,0,0,0,231.13,233.544Zm-4.232-1.2a.276.276,0,0,1,.286-.286h.571a.277.277,0,0,1,.286.286v2.571a.276.276,0,0,1-.286.286h-.571a.274.274,0,0,1-.286-.286Zm-6.857,0a.276.276,0,0,1,.286-.286h.571a.277.277,0,0,1,.286.286v2.571a.276.276,0,0,1-.286.286h-.571a.274.274,0,0,1-.286-.286Zm10.285,13.429H217.755v-9.143h12.571Z" transform="translate(-216.612 -230.919)"/>
</svg>
